<svg width="40" height="40" viewBox="0 0 40 40" fill="none" xmlns="http://www.w3.org/2000/svg">
<path d="M5.33142 0C2.39386 0 0.00215082 2.39125 0 5.33111C0 8.27097 2.39171 10.6627 5.33142 10.6627C8.27005 10.6627 10.6605 8.27097 10.6605 5.33111C10.6605 2.39156 8.2699 0 5.33142 0Z" fill="#BAD7F2"/>
<path d="M9.3327 12.8047H1.32951C0.948811 12.8047 0.640015 13.1133 0.640015 13.4943V39.2542C0.640015 39.6351 0.948811 39.9437 1.32951 39.9437H9.33255C9.7134 39.9437 10.0222 39.6349 10.0222 39.2542V13.4943C10.0223 13.1132 9.71355 12.8047 9.3327 12.8047Z" fill="#BAD7F2"/>
<path d="M29.7925 12.5015C26.8637 12.5015 24.29 13.3933 22.7194 14.8475V13.4944C22.7194 13.1134 22.4106 12.8047 22.0298 12.8047H14.3527C13.9719 12.8047 13.6631 13.1134 13.6631 13.4944V39.2543C13.6631 39.6351 13.9719 39.9438 14.3527 39.9438H22.3482C22.7291 39.9438 23.0379 39.635 23.0379 39.2543V26.5096C23.0379 22.8529 23.7105 20.5864 27.0671 20.5864C30.3742 20.5904 30.6217 23.0208 30.6217 26.7281V39.2543C30.6217 39.6351 30.9305 39.9438 31.3115 39.9438H39.3107C39.6914 39.9438 40.0002 39.635 40.0002 39.2543V25.1239C40 19.247 38.8398 12.5015 29.7925 12.5015Z" fill="#BAD7F2"/>
</svg>
