<svg width="42" height="30" viewBox="0 0 42 30" fill="none" xmlns="http://www.w3.org/2000/svg">
<path d="M2.39452 0H39.6054C40.2415 0.00620927 40.8495 0.25933 41.2977 0.704531C41.7459 1.14973 41.9982 1.75116 41.9999 2.37854V27.6012C42.0035 28.0825 41.8579 28.5533 41.5826 28.9507C41.5331 29.0781 41.4561 29.1932 41.3568 29.2881C41.2901 29.351 41.214 29.4034 41.1311 29.4433C40.6995 29.8025 40.153 29.9997 39.5883 30H2.39452C1.76139 29.9938 1.15595 29.7431 0.708236 29.3015C0.260521 28.8599 0.00623823 28.2628 0 27.6383V2.37854C0.0017683 1.75116 0.254076 1.14973 0.702269 0.704531C1.15046 0.25933 1.75845 0.00620927 2.39452 0ZM2.2919 26.5992L14.8734 13.7045L2.2919 3.21862V26.5992ZM16.7685 15.3138L3.32497 28.1545H38.5587L25.7138 15.3138L21.9509 18.4211C21.7851 18.5569 21.5764 18.6312 21.3609 18.6312C21.1453 18.6312 20.9366 18.5569 20.7708 18.4211L16.7685 15.3138ZM27.5781 13.6808L39.708 26.7038V3.10391L27.5781 13.6808ZM3.47548 1.82524L21.3249 16.0931L38.3876 1.82524H3.47548Z" fill="#BAD7F2"/>
</svg>
